- 
http://www.Speed.Cd
 
http://www.Speed.Cd       the fast  and The Hottest Private Tracker on the net

Please Seed back to make the speed Faster!!
 ............ NFO .............
-General
Unique ID : 232365832935836334195940039281719348613 (0xAED00814FEC3978AB26D574717B78D85)
Complete name : Star.Wars.The.Clone.Wars.S05E05.Tipping.Points.720p.WEB-DL.AVC.AC3-SWC.mkv
Format : Matroska
Format version : Version 2
File size : 721 MiB
Duration : 22mn 23s
Overall bit rate : 4 498 Kbps
Movie name : S05E05 - Tipping Points
Encoded date : UTC 2012-10-28 08:15:46
Writing application : mkvmerge v5.8.0 ('No Sleep / Pillow') built on Sep 2 2012 15:37:04
Writing library : libebml v1.2.3 + libmatroska v1.3.0

Video
ID : 1
Format : AVC
Format/Info : Advanced Video Codec
Format profile : High@L3.1
Format settings, CABAC : No
Format settings, ReFrames : 2 frames
Muxing mode : Header stripping
Codec ID : V_MPEG4/ISO/AVC
Duration : 22mn 23s
Bit rate : 4 025 Kbps
Width : 1 280 pixels
Height : 720 pixels
Display aspect ratio : 16:9
Frame rate : 23.976 fps
Color space : YUV
Chroma subsampling : 4:2:0
Bit depth : 8 bits
Scan type : Progressive
Bits/(Pixel*Frame) : 0.182
Stream size : 645 MiB (89%)
Title : AVC
Language : English
Color primaries : BT.709-5, BT.1361, IEC 61966-2-4, SMPTE RP177
Transfer characteristics : BT.709-5, BT.1361
Matrix coefficients : BT.709-5, BT.1361, IEC 61966-2-4 709, SMPTE RP177

Audio
ID : 2
Format : AC-3
Format/Info : Audio Coding 3
Mode extension : CM (complete main)
Muxing mode : Header stripping
Codec ID : A_AC3
Duration : 22mn 23s
Bit rate mode : Constant
Bit rate : 384 Kbps
Channel(s) : 6 channels
Channel positions : Front: L C R, Side: L R, LFE
Sampling rate : 48.0 KHz
Bit depth : 16 bits
Compression mode : Lossy
Stream size : 61.5 MiB (9%)
Title : AC-3
Language : English